<?xml version="1.0" encoding="UTF-8" standalone="no"?>
<!-- Created with Inkscape (http://www.inkscape.org/) -->

<svg
   xmlns:dc="http://purl.org/dc/elements/1.1/"
   xmlns:cc="http://creativecommons.org/ns#"
   xmlns:rdf="http://www.w3.org/1999/02/22-rdf-syntax-ns#"
   xmlns:svg="http://www.w3.org/2000/svg"
   xmlns="http://www.w3.org/2000/svg"
   xmlns:sodipodi="http://sodipodi.sourceforge.net/DTD/sodipodi-0.dtd"
   xmlns:inkscape="http://www.inkscape.org/namespaces/inkscape"
   width="36"
   height="36"
   viewBox="0 0 35.999999 36"
   id="svg2"
   version="1.1"
   inkscape:version="0.91 r13725"
   sodipodi:docname="button-toggle-notes-icon-white2.svg">
  <defs
     id="defs4" />
  <sodipodi:namedview
     id="base"
     pagecolor="#ffffff"
     bordercolor="#666666"
     borderopacity="1.0"
     inkscape:pageopacity="0.0"
     inkscape:pageshadow="2"
     inkscape:zoom="8.388889"
     inkscape:cx="5.9251773"
     inkscape:cy="5.7780022"
     inkscape:document-units="px"
     inkscape:current-layer="layer1"
     showgrid="false"
     fit-margin-top="0"
     fit-margin-left="0"
     fit-margin-right="0"
     fit-margin-bottom="0"
     inkscape:window-width="1861"
     inkscape:window-height="1056"
     inkscape:window-x="59"
     inkscape:window-y="24"
     inkscape:window-maximized="1"
     units="px" />
  <metadata
     id="metadata7">
    <rdf:RDF>
      <cc:Work
         rdf:about="">
        <dc:format>image/svg+xml</dc:format>
        <dc:type
           rdf:resource="http://purl.org/dc/dcmitype/StillImage" />
        <dc:title></dc:title>
      </cc:Work>
    </rdf:RDF>
  </metadata>
  <g
     inkscape:label="Layer 1"
     inkscape:groupmode="layer"
     id="layer1"
     transform="translate(-234.28572,-393.50507)">
    <g
       transform="matrix(-0.0234375,0,0,-0.0234375,270.28572,426.50507)"
       id="g4266"
       style="fill:#ffffff;fill-opacity:0.94117647">
      <path
         style="fill:#ffffff;fill-opacity:0.94117647"
         inkscape:connector-curvature="0"
         d="m 1088,640 q 0,-33 -27,-52 L 613,268 q -31,-23 -66,-5 -35,17 -35,57 l 0,640 q 0,40 35,57 35,18 66,-5 l 448,-320 q 27,-19 27,-52 z m 192,-480 0,960 q 0,14 -9,23 -9,9 -23,9 l -960,0 q -14,0 -23,-9 -9,-9 -9,-23 l 0,-960 q 0,-14 9,-23 9,-9 23,-9 l 960,0 q 14,0 23,9 9,9 9,23 z m 256,960 0,-960 Q 1536,41 1451.5,-43.5 1367,-128 1248,-128 l -960,0 Q 169,-128 84.5,-43.5 0,41 0,160 l 0,960 Q 0,1239 84.5,1323.5 169,1408 288,1408 l 960,0 q 119,0 203.5,-84.5 Q 1536,1239 1536,1120 Z"
         id="path4268" />
    </g>
  </g>
</svg>
